<svg width="125" height="146" viewBox="0 0 125 146" fill="none" xmlns="http://www.w3.org/2000/svg">
<path d="M85.2377 0.849731C85.4563 0.849731 85.6749 0.849731 85.8778 0.849731C86.8147 2.85627 84.9878 3.29245 83.7543 3.83044C81.0217 5.02273 78.2579 6.08414 75.8221 7.81442C70.2945 11.7403 70.5131 18.0652 76.353 21.5694C79.148 23.2415 82.4738 22.4709 84.0978 19.7519C84.2539 19.4902 84.3945 19.2139 84.5194 18.9376C85.2377 17.4255 85.4406 15.2881 87.8297 15.3899C90.4529 15.4916 91.6553 17.4255 92.4204 19.4902C94.9499 26.2513 91.4835 34.1611 84.5974 37.36C82.6768 38.2614 80.6469 38.9303 78.742 39.8899C71.8403 43.3941 70.9815 53.5868 77.2429 58.007C79.2416 59.4173 81.4277 59.6354 83.5669 58.3559C85.8623 56.9891 84.9878 55.0698 84.3164 53.2378C84.2071 52.9469 84.0509 52.6853 83.926 52.409C83.3795 51.0568 81.9742 49.6609 83.317 48.2505C84.6911 46.7965 86.6898 47.16 88.4855 47.5526C92.9825 48.5122 95.7775 51.2167 97.2297 55.2153C98.4632 58.6322 98.4163 62.1073 97.8386 65.626C97.1672 69.7699 96.121 73.8847 96.8861 78.1304C97.1203 79.4681 97.5732 80.6459 98.6506 81.5764C101.539 84.0337 104.225 83.4666 105.724 80.1079C106.395 78.6102 106.52 76.9963 106.895 75.4406C107.41 73.2886 107.926 71.1367 108.925 69.1156C112.095 62.7616 118.606 61.6857 124.102 66.6002C125.398 70.1626 125.414 70.2207 121.869 71.7038C120.167 72.4163 119.043 73.5358 118.497 75.1207C117.419 78.1741 116.576 81.2566 117.341 84.5427C119.012 91.6673 118.45 98.6756 115.936 105.568C114 110.875 112.407 116.327 109.284 121.169C101.43 133.412 89.3443 140.246 74.9945 143.997C70.7942 145.102 66.2971 144.739 61.9563 145.364C56.7879 145.364 51.6038 145.364 46.4354 145.364C44.7803 144.913 43.0939 144.841 41.3919 144.753C25.9647 143.896 5.43147 132.627 1.51221 112.692C0.0444425 105.277 0.43483 97.9342 2.1212 90.6205C2.98001 86.8546 4.72886 83.3504 7.41457 80.4133C10.2877 77.2581 10.7092 74.0737 8.57003 70.4532C7.78931 69.1301 6.35275 67.5452 8.07036 66.1348C9.63181 64.8408 11.5992 65.4514 13.2388 66.2948C17.7202 68.6066 20.1248 72.2563 20.562 76.9819C20.7806 79.381 20.4996 81.7655 20.1249 84.1646C19.7657 86.462 19.6876 88.8611 22.7012 89.9952C25.2152 90.9403 28.2132 90.097 30.1338 87.7851C31.9607 85.5895 32.7571 83.0014 33.5066 80.3697C35.5052 73.3759 34.0687 66.4839 33.2255 59.5192C30.8209 39.6865 36.8012 22.7181 54.2427 10.3154C62.534 4.42662 72.1839 1.31499 82.7549 1.09689C83.5825 1.12597 84.4726 1.40226 85.2377 0.849731Z" fill="#C30A0B"/>
<path d="M11.787 95.3462C12.5521 95.4479 12.6146 95.855 12.802 96.2185C16.7212 104.201 24.185 106.353 32.1016 101.511C40.065 96.6548 43.75 89.3701 44.4839 80.7478C45.1085 73.3033 43.8594 65.9896 42.3604 58.6759C41.3923 53.9504 41.4079 49.1084 42.5477 44.3393C44.2966 37.0547 49.4494 32.3583 56.7414 28.1125C54.8521 32.082 52.6973 35.0482 51.9634 38.5815C51.3232 41.6785 51.2138 44.8046 51.8384 47.8435C53.0564 53.805 57.4129 55.5497 64.455 52.9761C64.4082 54.5755 63.2995 55.5642 62.5344 56.6838C58.9899 61.8456 56.9132 67.3855 58.5839 73.5069C60.6919 81.184 67.0158 85.0952 74.4015 87.7561C76.9311 88.6721 78.2114 87.5961 78.1646 84.9934C78.1178 81.6056 77.743 78.1741 81.1001 75.2225C81.35 80.3115 84.1919 84.0774 86.7995 87.9305C91.1091 94.3282 94.7317 101.002 96.5117 108.461C98.9476 118.697 95.122 127.363 85.3942 132.569C77.5244 136.785 68.9052 138.879 59.8644 139.33C51.1202 139.766 42.4853 139.504 34.069 136.64C16.4714 130.635 6.80594 114.379 11.0063 97.4253C11.178 96.6837 11.5372 96.0005 11.787 95.3462Z" fill="#FC7307"/>
<path d="M19.5471 43.9177C14.5348 41.0824 13.27 37.5346 15.1438 33.129C16.6428 29.6103 19.6408 27.4001 22.8417 25.3354C25.6992 23.4888 28.9626 22.0203 30.6022 18.3853C31.2267 20.7698 31.5547 22.66 31.664 24.6229C31.8982 29.4793 29.1813 32.5182 24.8248 34.5248C20.7807 36.3714 18.0637 38.8141 19.5471 43.9177Z" fill="#C30A0B"/>
<path d="M53.8211 79.6428C54.8985 85.5751 57.0846 90.3442 58.9584 95.1861C60.4262 98.9665 62.9245 102.049 66.2816 104.55C67.0155 105.103 67.7338 106.062 68.7488 105.568C69.6856 105.132 69.1234 104.085 69.0454 103.358C68.7174 100.595 69.6856 98.4868 72.5275 96.931C73.2457 102.02 76.7122 106.106 77.2118 111.166C77.7427 116.633 77.7271 121.998 75.4318 127.131C72.1527 134.488 65.5633 137.396 57.5687 138.05C51.6195 138.53 45.7484 137.76 40.1116 135.869C31.6485 133.02 28.0259 127.392 29.7904 119.177C31.6641 110.439 36.7701 104.245 46.576 102.151C50.4485 101.322 51.0574 100.464 50.9325 96.6837C50.7763 92.1763 50.5265 87.6544 52.2129 83.3069C52.6189 82.2891 53.0873 81.3149 53.8211 79.6428Z" fill="#FEFB01"/>
<path d="M53.0399 72.3582C52.915 73.5069 52.6651 74.9609 50.9944 74.7137C48.7615 74.3938 48.7928 72.5036 48.9958 70.9333C49.1207 69.93 48.3712 67.8653 50.0732 68.127C51.9313 68.4323 52.9774 70.308 53.0399 72.3582Z" fill="#FEF901"/>
</svg>
