<svg width="474" height="113" viewBox="0 0 474 113" fill="none" xmlns="http://www.w3.org/2000/svg">
<path d="M18.8184 65.0531V110.709H1.36133V2.96686H18.8184V48.71H39.8668V2.96686H57.3239V110.709H39.8668V65.0531H18.8184V65.0531Z" stroke="black" stroke-width="1.281" stroke-miterlimit="10"/>
<path d="M100.358 1.6001C108.056 1.6001 114.598 4.13001 119.985 9.16089C125.372 14.2063 128.058 20.2841 128.058 27.3943V86.2091C128.058 93.3774 125.341 99.4696 119.938 104.486C114.52 109.502 107.993 112.003 100.358 112.003C92.6596 112.003 86.1327 109.488 80.7769 104.442C75.4211 99.3968 72.7354 93.3192 72.7354 86.2091V27.3943C72.7354 20.226 75.4367 14.1337 80.855 9.11732C86.2888 4.10097 92.7845 1.6001 100.358 1.6001ZM109.867 27.0453C109.867 24.4717 108.899 22.2761 106.962 20.4731C105.026 18.6702 102.669 17.7687 99.9048 17.7687C97.141 17.7687 94.7676 18.6702 92.8002 20.4731C90.8327 22.2761 89.849 24.4717 89.849 27.0453V86.0346C89.849 88.6082 90.8327 90.8038 92.8002 92.6068C94.7676 94.4097 97.141 95.3112 99.9048 95.3112C102.669 95.3112 105.026 94.4097 106.962 92.6068C108.899 90.8038 109.867 88.6082 109.867 86.0346V27.0453Z" stroke="black" stroke-width="1.281" stroke-miterlimit="10"/>
<path d="M158.616 19.3099H140.05V2.96686H194.545V19.3099H176.073V110.724H158.616V19.3099Z" stroke="black" stroke-width="1.281" stroke-miterlimit="10"/>
<path d="M276.256 83.8827C276.381 91.4 274.289 97.8122 269.979 103.148C267.153 106.754 263.14 109.313 257.972 110.796C255.208 111.596 251.976 112.003 248.275 112.003C241.436 112.003 235.783 110.433 231.286 107.278C227.539 104.704 224.557 101.185 222.371 96.7361C220.184 92.3014 218.904 87.2124 218.545 81.469L235.159 80.3494C235.893 86.6307 237.688 91.1818 240.515 94.0026C242.607 96.14 245.012 97.1432 247.713 97.0269C251.523 96.9106 254.583 95.1658 256.848 91.7779C258.019 90.1203 258.596 87.7357 258.596 84.6387C258.596 80.1603 256.41 75.7111 252.038 71.3055C248.587 68.2666 243.419 63.7009 236.517 57.6232C230.724 52.4033 226.633 47.7213 224.229 43.5919C221.637 38.9391 220.356 33.8937 220.356 28.4411C220.356 18.6266 223.901 11.1965 230.974 6.1511C235.346 3.11222 240.764 1.58557 247.229 1.58557C253.444 1.58557 258.768 2.8796 263.203 5.45321C266.653 7.45974 269.433 10.266 271.556 13.8865C273.68 17.4924 274.96 21.6509 275.398 26.3619L258.674 29.1973C258.175 24.7771 256.832 21.3455 254.615 18.8737C253.006 17.0998 250.711 16.2129 247.682 16.2129C244.481 16.2129 242.045 17.536 240.39 20.1678C239.031 22.2907 238.36 24.9224 238.36 28.0776C238.36 33.0067 240.64 38.0231 245.199 43.1267C246.917 45.0751 249.509 47.3724 252.959 50.0042C257.019 53.1594 259.705 55.3695 260.985 56.62C265.295 60.6331 268.621 64.5879 270.963 68.4846C272.072 70.3167 272.962 72.0033 273.649 73.5591C275.335 77.4122 276.194 80.8438 276.256 83.8827Z" stroke="black" stroke-width="1.281" stroke-miterlimit="10"/>
<path d="M308.734 85.9473L304.487 110.709H286.312L305.986 2.96686H330.001L349.394 110.709H331.047L326.956 85.9473H308.734ZM317.915 27.656L311.451 70.1276H324.38L317.915 27.656Z" stroke="black" stroke-width="1.281" stroke-miterlimit="10"/>
<path d="M411.634 110.709H364.072V2.96686H381.529V94.5405H411.634V110.709Z" stroke="black" stroke-width="1.281" stroke-miterlimit="10"/>
<path d="M423.642 110.709V2.87958H473.327V19.2228H441.099V48.6373H464.646V64.9806H441.099V94.3952H473.327V110.738H423.642V110.709Z" stroke="black" stroke-width="1.281" stroke-miterlimit="10"/>
</svg>
